<?xml version="1.0" encoding="utf-8"?>
<!-- Generator: Adobe Illustrator 27.4.0, SVG Export Plug-In . SVG Version: 6.00 Build 0)  -->
<svg version="1.1" id="Calque_1" xmlns="http://www.w3.org/2000/svg" xmlns:xlink="http://www.w3.org/1999/xlink" x="0px" y="0px"
	 viewBox="0 0 151 45" style="enable-background:new 0 0 151 45;" xml:space="preserve">
<style type="text/css">
	.st0{enable-background:new    ;}
	.st1{fill:#C3C3C3;}
	.st2{fill:#FFFFFF;}
</style>
<g id="Page-1">
	<g id="nav_x2F_tablet-copy" transform="translate(0.000000, 0.869000)">
		<g class="st0">
			<path class="st1" d="M99.7,35.9c0,0.7,0.2,1.2,0.4,1.6c0.5,0.8,1.4,1.1,2.6,1.1c0.6,0,1.1-0.1,1.5-0.2c0.9-0.3,1.3-0.9,1.3-1.7
				c0-0.6-0.2-1.1-0.6-1.3c-0.4-0.3-1-0.5-1.8-0.7l-1.5-0.4c-1-0.2-1.7-0.5-2.1-0.8c-0.7-0.5-1.1-1.2-1.1-2.1c0-1,0.3-1.9,1-2.5
				c0.7-0.7,1.7-1,3-1c1.2,0,2.2,0.3,3,0.9c0.8,0.6,1.2,1.5,1.2,2.8h-1.5c-0.1-0.6-0.2-1.1-0.5-1.4c-0.5-0.6-1.2-0.9-2.3-0.9
				c-0.9,0-1.5,0.2-1.9,0.6c-0.4,0.4-0.6,0.8-0.6,1.3c0,0.6,0.2,1,0.7,1.2c0.3,0.2,1,0.4,2,0.6l1.6,0.4c0.8,0.2,1.3,0.4,1.7,0.7
				c0.7,0.5,1.1,1.3,1.1,2.3c0,1.3-0.5,2.2-1.4,2.7s-1.9,0.8-3.1,0.8c-1.4,0-2.5-0.4-3.3-1.1c-0.8-0.7-1.2-1.7-1.2-2.9H99.7z"/>
			<path class="st1" d="M109.7,28.2h1.4v1.6h-1.4V28.2z M109.7,31.3h1.4v8.3h-1.4V31.3z"/>
			<path class="st1" d="M118.4,31.5c0.2,0.2,0.5,0.4,0.8,0.8v-4.2h1.4v11.5h-1.3v-1.2c-0.3,0.5-0.7,0.9-1.2,1.1s-1,0.3-1.5,0.3
				c-0.9,0-1.7-0.4-2.4-1.2s-1-1.8-1-3.1c0-1.2,0.3-2.3,0.9-3.2c0.6-0.9,1.5-1.3,2.7-1.3C117.4,31.1,117.9,31.3,118.4,31.5z
				 M115.2,37.8c0.4,0.6,1,0.9,1.8,0.9c0.6,0,1.2-0.3,1.6-0.8c0.4-0.6,0.6-1.4,0.6-2.4c0-1.1-0.2-1.8-0.6-2.3s-1-0.8-1.6-0.8
				c-0.7,0-1.3,0.3-1.7,0.8s-0.7,1.3-0.7,2.4C114.7,36.4,114.9,37.2,115.2,37.8z"/>
			<path class="st1" d="M123.2,31.3h1.3v1.2c0.4-0.5,0.8-0.8,1.3-1.1s0.9-0.3,1.5-0.3c1.2,0,2,0.4,2.4,1.2c0.2,0.5,0.3,1.1,0.3,1.9
				v5.4h-1.4v-5.3c0-0.5-0.1-0.9-0.2-1.2c-0.2-0.5-0.7-0.8-1.4-0.8c-0.3,0-0.6,0-0.8,0.1c-0.4,0.1-0.7,0.3-1,0.7
				c-0.2,0.3-0.4,0.6-0.5,0.9s-0.1,0.7-0.1,1.3v4.4h-1.4V31.3z"/>
			<path class="st1" d="M137.8,31.5c0.6,0.3,1,0.6,1.3,1.1c0.3,0.4,0.5,0.9,0.6,1.5c0.1,0.4,0.1,1,0.1,1.8h-6.1c0,0.9,0.2,1.5,0.6,2
				s0.9,0.8,1.7,0.8c0.7,0,1.3-0.2,1.7-0.7c0.2-0.3,0.4-0.6,0.5-1h1.4c0,0.3-0.2,0.6-0.4,1s-0.4,0.7-0.7,0.9
				c-0.4,0.4-0.9,0.7-1.6,0.8c-0.3,0.1-0.7,0.1-1.1,0.1c-1,0-1.9-0.4-2.6-1.1s-1.1-1.8-1.1-3.2c0-1.3,0.4-2.4,1.1-3.3
				c0.7-0.8,1.7-1.3,2.8-1.3C136.6,31.1,137.2,31.2,137.8,31.5z M138.3,34.8c-0.1-0.6-0.2-1.1-0.4-1.5c-0.4-0.7-1-1-1.9-1
				c-0.6,0-1.2,0.2-1.6,0.7s-0.7,1.1-0.7,1.8H138.3z"/>
			<path class="st1" d="M147.2,31.3h1.6c-0.2,0.5-0.6,1.8-1.3,3.7c-0.5,1.4-0.9,2.6-1.3,3.5c-0.8,2.1-1.4,3.4-1.7,3.9
				c-0.3,0.5-0.9,0.7-1.7,0.7c-0.2,0-0.3,0-0.5,0s-0.2,0-0.4-0.1v-1.3c0.2,0.1,0.4,0.1,0.5,0.1s0.2,0,0.3,0c0.3,0,0.5,0,0.6-0.1
				s0.2-0.2,0.3-0.3c0,0,0.1-0.3,0.3-0.6s0.3-0.7,0.4-0.9l-3.1-8.6h1.6l2.2,6.8L147.2,31.3z"/>
		</g>
		<g class="st0">
			<path class="st2" d="M10.7,6.3c2.6,0,7.3,1.1,7.3,4.2v1.9h-2.5v-1.1c0-1.6-2.7-2.4-4.7-2.4c-3.9,0-6.9,2.9-6.9,7.3
				c0,4.2,3.1,7.6,7,7.6c3.8,0,6.1-2.6,6.1-2.6l1.5,2c0,0-2.7,3.2-7.6,3.2c-5.8,0-9.8-4.5-9.8-10.2C0.9,10.5,5.1,6.3,10.7,6.3z"/>
			<path class="st2" d="M29.7,6.3c5.6,0,10,4.3,10,9.9c0,5.7-4.4,10.2-10,10.2c-5.6,0-10-4.5-10-10.2C19.7,10.6,24.1,6.3,29.7,6.3z
				 M29.7,23.7c3.9,0,7.1-3.3,7.1-7.6c0-4.2-3.2-7.3-7.1-7.3c-3.9,0-7.1,3.2-7.1,7.3C22.6,20.4,25.8,23.7,29.7,23.7z"/>
			<path class="st2" d="M43.1,9h-1.8V6.6h7.9c5.9,0,9.8,3.5,9.8,9.7c0,6.2-3.9,9.7-9.8,9.7h-4.3c-1.2,0-1.8-0.5-1.8-1.8V9z
				 M46.5,23.6H49c4.3,0,7.1-2.6,7.1-7.4c0-4.8-2.9-7.3-7.1-7.3h-3.1V23C45.9,23.4,46.1,23.6,46.5,23.6z"/>
			<path class="st2" d="M62.5,9h-1.8V6.6h11.4c1.2,0,1.8,0.5,1.8,1.8v2.4h-2.5V9.6c0-0.4-0.2-0.6-0.6-0.6h-5.5V15H72v2.4h-6.8V23
				c0,0.4,0.2,0.6,0.6,0.6h5.7c0.4,0,0.6-0.2,0.6-0.6v-1.2h2.5v2.4c0,1.2-0.5,1.8-1.8,1.8h-8.6c-1.2,0-1.8-0.5-1.8-1.8V9z"/>
			<path class="st2" d="M85.6,6.3c2.6,0,7.3,1.1,7.3,4.2v1.9h-2.5v-1.1c0-1.6-2.7-2.4-4.7-2.4c-3.9,0-6.9,2.9-6.9,7.3
				c0,4.2,3.1,7.6,7,7.6c3.8,0,6.1-2.6,6.1-2.6l1.5,2c0,0-2.8,3.2-7.6,3.2c-5.8,0-9.8-4.5-9.8-10.2C75.8,10.5,80,6.3,85.6,6.3z"/>
			<path class="st2" d="M104.6,6.3c5.6,0,10,4.3,10,9.9c0,5.7-4.4,10.2-10,10.2s-10-4.5-10-10.2C94.7,10.6,99,6.3,104.6,6.3z
				 M104.6,23.7c3.9,0,7.1-3.3,7.1-7.6c0-4.2-3.2-7.3-7.1-7.3c-3.9,0-7.1,3.2-7.1,7.3C97.5,20.4,100.7,23.7,104.6,23.7z"/>
			<path class="st2" d="M116.2,23.6h1.2c0.4,0,0.6-0.2,0.6-0.6V6.6h2.5l8.6,12.3c0.7,1,1.6,2.6,1.6,2.6h0.1c0,0-0.2-1.5-0.2-2.6V8.3
				c0-1.2,0.5-1.8,1.8-1.8h2.8V9H134c-0.4,0-0.6,0.2-0.6,0.6V26h-2.5l-8.7-12.3c-0.7-1-1.6-2.6-1.6-2.6h-0.1c0,0,0.2,1.6,0.2,2.6
				v10.5c0,1.2-0.5,1.8-1.8,1.8h-2.8V23.6z"/>
			<path class="st2" d="M138.7,9h-1.8V6.6h10.7c1.2,0,1.8,0.5,1.8,1.8v2.4h-2.5V9.6c0-0.4-0.2-0.6-0.6-0.6h-4.8v6.4h6.6v2.4h-6.6V26
				h-2.8V9z"/>
		</g>
	</g>
</g>
</svg>
