<?xml version="1.0" encoding="UTF-8"?>
<svg width="78px" height="33px" viewBox="0 0 78 33" version="1.1" xmlns="http://www.w3.org/2000/svg" xmlns:xlink="http://www.w3.org/1999/xlink">
    <title>stripe</title>
    <g id="Page-1" stroke="none" stroke-width="1" fill="none" fill-rule="evenodd">
        <path d="M8.92119343,15.1615444 C7.2766862,14.5532811 6.37544285,14.0801875 6.37544285,13.3367547 C6.37544285,12.7058505 6.89364933,12.3454546 7.81736463,12.3454546 C9.50698471,12.3454546 11.2415487,12.9988307 12.4356032,13.584453 L13.1114512,9.4168361 C12.165264,8.96621442 10.2277766,8.22278158 7.54702542,8.22278158 C5.65465093,8.22278158 4.07755954,8.71834715 2.9512588,9.64206245 C1.77967623,10.6107216 1.171413,12.0075306 1.171413,13.6971506 C1.171413,16.7609387 3.04131555,18.0676909 6.08263169,19.1715197 C8.04259099,19.8698397 8.69596707,20.3655742 8.69596707,21.131479 C8.69596707,21.8749118 8.06506293,22.3028926 6.91612128,22.3028926 C5.49684041,22.3028926 3.15401321,21.6045726 1.62203468,20.7034982 L0.946186647,24.916228 C2.25276986,25.6596608 4.68582277,26.4255656 7.2091014,26.4255656 C9.21400459,26.4255656 10.8811527,25.952472 12.0076224,25.0513976 C13.2690928,24.0600975 13.9224689,22.5958727 13.9224689,20.7034982 C13.9224689,17.5719564 12.0076224,16.2653732 8.92119343,15.1615444 Z M24.9247679,12.7058505 L25.600616,8.5607056 L22.0326453,8.5607056 L22.0326453,3.52867908 L17.2354759,4.31806958 L16.5427317,8.5607056 L14.8554771,8.83442405 L14.2238971,12.7058505 L16.5358042,12.7058505 L16.5358042,20.8386678 C16.5358042,22.9562687 17.0764827,24.4206624 18.1803115,25.3217368 C19.1040268,26.0651696 20.4330819,26.4255656 22.3029845,26.4255656 C23.7447373,26.4255656 24.6233397,26.1778673 25.231603,26.0200568 L25.231603,21.6270446 C24.8936789,21.7172703 24.1277742,21.8749118 23.6095677,21.8749118 C22.5057389,21.8749118 22.0326453,21.3117615 22.0326453,20.0276502 L22.0326453,12.7058505 L24.9247679,12.7058505 Z M35.6396627,8.31858304 C34.0627402,8.31858304 32.8011009,9.14649688 32.3055353,10.6333626 L31.9676113,8.5607056 L27.0790335,8.5607056 L27.0790335,26.0876416 L32.6659313,26.0876416 L32.6659313,14.7109227 C33.3644202,13.8547922 34.3555514,13.5452538 35.7072475,13.5452538 C36.0002276,13.5452538 36.3155107,13.5452538 36.6985476,13.6128386 L36.6985476,8.45375265 C36.3155107,8.3636959 35.9775867,8.31858304 35.6396627,8.31858304 Z M40.8663334,6.82597266 C42.4883687,6.82597266 43.7949519,5.49691751 43.7949519,3.87488223 C43.7949519,2.23020604 42.4883687,0.923622836 40.8663334,0.923622836 C39.2216572,0.923622836 37.915074,2.23020604 37.915074,3.87488223 C37.915074,5.49691751 39.2216572,6.82597266 40.8663334,6.82597266 L40.8663334,6.82597266 Z M38.0502436,8.5607056 L43.6597823,8.5607056 L43.6597823,26.0876416 L38.0502436,26.0876416 L38.0502436,8.5607056 L38.0502436,8.5607056 Z M59.5562349,10.137628 C58.5649348,8.85351676 57.1907668,8.22278158 55.4335619,8.22278158 C53.8115266,8.22278158 52.3922458,8.89862962 51.0630216,10.3179105 L50.7702105,8.5607056 L45.8589918,8.5607056 L45.8589918,32.5757827 L51.4460585,31.6522364 L51.4460585,26.0200568 C52.30202,26.290396 53.1806225,26.4255656 53.9691682,26.4255656 C55.3659771,26.4255656 57.3935212,26.0651696 58.9704436,24.3530776 C60.4797812,22.7084014 61.245855,20.1628198 61.245855,16.8060516 C61.245855,13.8323203 60.6825356,11.5795498 59.5562349,10.137628 Z M54.9153554,20.9511965 C54.4647337,21.807327 53.7664138,22.2579487 52.9553961,22.2579487 C52.3922458,22.2579487 51.8965112,22.145251 51.4460585,21.9200247 L51.4460585,13.584453 C52.3922458,12.5933218 53.2482073,12.4806242 53.5636594,12.4806242 C54.9829402,12.4806242 55.6812602,14.0126027 55.6812602,17.008806 C55.6812602,18.720898 55.4335619,20.0501221 54.9153554,20.9511965 L54.9153554,20.9511965 Z M77.2634533,17.1664476 C77.2634533,14.3729987 76.6551901,12.1651721 75.4611356,10.6107216 C74.2446091,9.03379922 72.4198195,8.22278158 70.0994642,8.22278158 C65.3458871,8.22278158 62.3947966,11.7371914 62.3947966,17.369202 C62.3947966,20.5232158 63.1831734,22.8886839 64.7376238,24.3980215 C66.1344328,25.7497176 68.1395049,26.4255656 70.7301994,26.4255656 C73.1181394,26.4255656 75.325966,25.8624152 76.7227749,24.9386999 L76.1145117,21.1090071 C74.7401747,21.8524399 73.1407803,22.2579487 71.3384626,22.2579487 C70.2571057,22.2579487 69.5136729,22.0325534 68.9729945,21.5594598 C68.3872032,21.0638942 68.0492792,20.2528766 67.9367505,19.1039349 L77.1958685,19.1039349 C77.2183405,18.8335957 77.2634533,17.5719564 77.2634533,17.1664476 L77.2634533,17.1664476 Z M67.8916376,15.6795819 C68.0492792,13.1789442 68.7251272,12.0075306 70.0092385,12.0075306 C71.2708778,12.0075306 71.9242539,13.2015851 72.0143106,15.6795819 L67.8916376,15.6795819 L67.8916376,15.6795819 Z" id="stripe" fill="#F2F2F2" fill-rule="nonzero"></path>
    </g>
</svg>